<?xml version="1.0" standalone="no"?>
<!DOCTYPE svg PUBLIC "-//W3C//DTD SVG 20010904//EN"
 "http://www.w3.org/TR/2001/REC-SVG-20010904/DTD/svg10.dtd">
<svg version="1.0" xmlns="http://www.w3.org/2000/svg"
 width="479.000000pt" height="479.000000pt" viewBox="0 0 479.000000 479.000000"
 preserveAspectRatio="xMidYMid meet">
<metadata>
Created by potrace 1.11, written by Peter Selinger 2001-2013
</metadata>
<g transform="translate(0.000000,479.000000) scale(0.100000,-0.100000)"
fill="#000000" stroke="none">
<path d="M2337 4784 c-1 -1 -52 -4 -113 -8 -62 -3 -118 -8 -125 -10 -8 -3 -36
-8 -64 -11 -115 -12 -300 -58 -445 -110 -103 -36 -340 -147 -432 -202 -473
-280 -860 -764 -1033 -1288 -55 -165 -91 -334 -113 -520 -9 -80 -9 -424 1
-505 52 -449 237 -892 514 -1238 368 -456 935 -781 1513 -866 182 -26 510 -27
671 -1 13 2 42 6 65 9 79 10 270 57 385 96 347 115 655 310 943 596 189 189
361 443 476 704 23 52 44 102 45 110 2 8 13 40 24 70 19 53 69 224 77 265 2
11 6 31 9 45 36 185 36 183 42 525 5 290 4 322 -11 334 -14 11 -112 14 -544
13 -290 0 -537 -1 -550 -1 -15 -1 -27 -11 -37 -33 -12 -28 -67 -234 -81 -303
-2 -11 -24 -101 -49 -200 -50 -194 -55 -229 -36 -248 9 -9 76 -12 232 -14 121
-1 222 -3 224 -5 8 -7 -55 -180 -99 -273 -222 -469 -670 -807 -1179 -889 -151
-25 -397 -26 -513 -2 -12 2 -37 7 -55 10 -71 11 -218 59 -319 103 -289 128
-520 320 -687 570 -53 81 -163 290 -163 312 0 6 -4 19 -10 29 -18 31 -50 146
-72 252 -29 144 -30 438 -3 565 3 11 7 31 9 45 6 39 25 109 49 180 11 36 22
67 22 70 17 65 134 277 206 373 255 340 623 565 1024 626 131 21 206 22 979
23 599 0 806 3 818 12 9 6 21 30 27 51 19 70 163 649 167 676 6 35 -18 59 -59
60 -68 1 -1729 4 -1730 3z"/>
<path d="M1556 2784 c-12 -8 -23 -41 -61 -184 -3 -12 -62 -248 -79 -320 -2 -8
-16 -61 -30 -117 -14 -56 -26 -110 -26 -121 0 -43 21 -47 247 -48 185 -1 216
1 232 15 13 11 32 72 60 186 22 94 45 184 50 200 8 24 17 61 26 105 1 3 4 14
8 25 3 11 8 31 11 45 2 14 11 52 20 85 20 74 20 109 1 125 -20 17 -437 21
-459 4z"/>
<path d="M2272 2792 c-12 -2 -26 -11 -31 -20 -7 -14 -134 -503 -146 -565 -2
-9 -11 -44 -19 -78 -21 -80 -20 -116 2 -127 26 -14 448 -10 463 5 6 6 37 116
70 245 32 128 69 277 83 330 37 144 41 182 22 197 -12 10 -67 14 -218 15 -112
0 -213 0 -226 -2z"/>
<path d="M2951 2775 c-17 -18 -26 -44 -37 -103 -3 -12 -38 -155 -79 -318 -41
-162 -75 -303 -75 -313 0 -44 22 -49 252 -48 186 0 220 3 232 16 11 13 26 65
52 174 2 9 6 25 8 35 2 9 14 53 25 98 12 45 23 90 25 101 2 11 18 73 36 139
41 156 47 206 26 223 -13 11 -68 14 -232 15 -203 1 -216 0 -233 -19z"/>
</g>
</svg>
